<svg id="Capa_1" enable-background="new 0 0 512 512" height="512" viewBox="0 0 512 512" width="512" xmlns="http://www.w3.org/2000/svg"><g><g><path d="m472 61v120c-10.633 0-81.842 0-92.46 0-20.56 0-39.35-11.61-48.54-30s-27.98-30-48.54-30h-52.92c-20.56 0-39.35 11.61-48.54 30s-27.98 30-48.54 30c-10.618 0-81.828 0-92.46 0v-120z" fill="#7f88a6"/><path d="m256 211c49.63 0 90 40.37 90 90s-40.37 90-90 90-90-40.37-90-90 40.37-90 90-90z" fill="#7f88a6"/><circle cx="256" cy="301" fill="#ccf5fc" r="30"/><path d="m409 181h-29.46c-20.56 0-39.35-11.61-48.54-30s-27.98-30-48.54-30h-52.92c-20.56 0-39.35 11.61-48.54 30s-27.98 30-48.54 30h-92.46v60c0 57.23 24.35 109.12 62.97 147 39.63 38.88 94.28 63 153.03 63s113.4-24.12 153.03-63c38.62-37.88 62.97-89.77 62.97-147v-60z" fill="#eefaff"/></g><g><path d="m256 201c-55.14 0-100 44.859-100 100s44.86 100 100 100 100-44.859 100-100-44.86-100-100-100zm0 180c-44.112 0-80-35.888-80-80s35.888-80 80-80 80 35.888 80 80-35.888 80-80 80z"/><path d="m256 261c-22.056 0-40 17.944-40 40s17.944 40 40 40 40-17.944 40-40-17.944-40-40-40zm0 60c-11.028 0-20-8.972-20-20s8.972-20 20-20 20 8.972 20 20-8.972 20-20 20z"/><circle cx="256" cy="61" r="10"/><path d="m502 51h-201c-5.523 0-10 4.478-10 10s4.477 10 10 10h161v100h-82.46c-16.88 0-32.052-9.376-39.595-24.471-10.952-21.915-32.979-35.529-57.485-35.529h-52.92c-24.506 0-46.533 13.614-57.485 35.529-7.543 15.095-22.715 24.471-39.595 24.471h-82.46v-100h161c5.523 0 10-4.478 10-10s-4.477-10-10-10h-201c-5.523 0-10 4.478-10 10s4.477 10 10 10h20v170c0 121.088 103.947 220 226 220 120.961 0 226-97.857 226-220v-170h20c5.523 0 10-4.478 10-10s-4.477-10-10-10zm-452 140h43v171.087c-27.883-34.88-43-77.065-43-121.087zm206 250c-52.467 0-104.338-20.819-143-57.241v-192.759h19.46c24.506 0 46.533-13.614 57.485-35.529 7.543-15.095 22.715-24.471 39.595-24.471h52.92c16.88 0 32.052 9.376 39.595 24.471 10.952 21.915 32.979 35.529 57.485 35.529h19.46v192.758c-38.662 36.423-90.533 57.242-143 57.242zm163-78.913v-171.087h43v50c0 44.022-15.117 86.207-43 121.087z"/></g></g></svg>