<svg height="511pt" viewBox="-56 1 511 511.999" width="511pt" xmlns="http://www.w3.org/2000/svg"><path d="m120.226562 23.53125h64.128907v352.710938h-64.128907zm0 0" fill="#c8c5c9"/><path d="m368.726562 392.273438h-176.355468c-13.28125 0-24.046875-10.765626-24.046875-24.046876v-336.679687c0-13.28125 10.765625-24.046875 24.046875-24.046875h176.355468c13.28125 0 24.046876 10.765625 24.046876 24.046875v336.679687c0 13.28125-10.765626 24.046876-24.046876 24.046876zm0 0" fill="#eceaec"/><path d="m112.210938 392.273438h-80.164063c-13.28125 0-24.046875-10.765626-24.046875-24.046876v-336.679687c0-13.28125 10.765625-24.046875 24.046875-24.046875h80.160156c13.285157 0 24.050781 10.765625 24.050781 24.046875v336.679687c0 13.28125-10.765624 24.046876-24.046874 24.046876zm0 0" fill="#eceaec"/><path d="m72.128906 368.226562c-22.101562 0-40.082031-17.980468-40.082031-40.082031v-320.644531c-13.28125 0-24.046875 10.765625-24.046875 24.046875v336.679687c0 13.28125 10.765625 24.046876 24.046875 24.046876h80.160156c13.285157 0 24.050781-10.765626 24.050781-24.046876zm0 0" fill="#dad8db"/><path d="m368.726562 7.5h-176.355468c-13.28125 0-24.046875 10.765625-24.046875 24.046875v152.308594h224.449219v-152.308594c0-13.28125-10.765626-24.046875-24.046876-24.046875zm0 0" fill="#9b959d"/><path d="m344.675781 143.773438h-128.257812c-4.425781 0-8.015625-3.589844-8.015625-8.015626v-80.160156c0-4.425781 3.589844-8.015625 8.015625-8.015625h128.257812c4.425781 0 8.015625 3.589844 8.015625 8.015625v80.160156c0 4.425782-3.589844 8.015626-8.015625 8.015626zm0 0" fill="#b3e59f"/><path d="m312.613281 119.726562h-64.128906c-8.855469 0-16.03125-7.179687-16.03125-16.03125v-16.035156c0-8.851562 7.175781-16.03125 16.03125-16.03125h64.128906c8.851563 0 16.03125 7.179688 16.03125 16.03125v16.03125c0 8.855469-7.179687 16.035156-16.03125 16.035156zm0 0" fill="#ccf49f"/><path d="m352.691406 239.96875c0 8.851562-7.175781 16.03125-16.03125 16.03125-8.855468 0-16.03125-7.179688-16.03125-16.03125 0-8.855469 7.175782-16.03125 16.03125-16.03125 8.855469 0 16.03125 7.175781 16.03125 16.03125zm0 0" fill="#b3e59f"/><path d="m352.691406 304.097656c0 8.855469-7.175781 16.03125-16.03125 16.03125-8.855468 0-16.03125-7.175781-16.03125-16.03125 0-8.855468 7.175782-16.03125 16.03125-16.03125 8.855469 0 16.03125 7.175782 16.03125 16.03125zm0 0" fill="#b3e59f"/><path d="m168.320312 31.546875v152.308594h24.050782v-176.355469c-13.28125 0-24.050782 10.765625-24.050782 24.046875zm0 0" fill="#857e87"/><path d="m232.453125 368.226562c-22.101563 0-40.082031-17.980468-40.082031-40.082031v-144.289062h-24.046875v184.371093c0 13.28125 10.765625 24.046876 24.046875 24.046876h176.355468c13.28125 0 24.046876-10.765626 24.046876-24.046876zm0 0" fill="#dad8db"/><path d="m288.085938 143.742188c0 4.164062-3.375 7.539062-7.539063 7.539062s-7.539063-3.375-7.539063-7.539062c0-4.164063 3.375-7.539063 7.539063-7.539063s7.539063 3.375 7.539063 7.539063zm0 0"/><path d="m309.648438 95.195312c1.207031.726563 2.539062 1.070313 3.855468 1.070313 2.542969 0 5.027344-1.296875 6.433594-3.636719 2.132812-3.550781.984375-8.160156-2.566406-10.292968-22.710938-13.648438-50.933594-13.648438-73.648438 0-3.550781 2.132812-4.699218 6.742187-2.566406 10.292968 2.132812 3.546875 6.742188 4.699219 10.292969 2.5625 17.949219-10.78125 40.25-10.78125 58.199219.003906zm0 0"/><path d="m300.855469 109.859375c-12.527344-7.519531-28.089844-7.519531-40.613281 0-3.550782 2.132813-4.703126 6.742187-2.570313 10.292969 1.40625 2.34375 3.886719 3.640625 6.4375 3.640625 1.3125 0 2.644531-.34375 3.851563-1.070313 7.765624-4.660156 17.410156-4.660156 25.171874 0 3.554688 2.132813 8.160157.980469 10.292969-2.570312 2.128907-3.550782.980469-8.160156-2.570312-10.292969zm0 0"/><path d="m368.726562 0h-176.355468c-11.757813 0-22.027344 6.46875-27.453125 16.03125h-25.257813c-5.425781-9.5625-15.691406-16.03125-27.449218-16.03125h-80.164063c-17.394531 0-31.546875 14.152344-31.546875 31.546875v336.679687c0 17.394532 14.152344 31.546876 31.546875 31.546876h32.582031v24.566406c0 48.335937 39.324219 87.660156 87.660156 87.660156 48.335938 0 87.664063-39.324219 87.664063-87.660156v-24.566406h128.773437c17.394532 0 31.546876-14.152344 31.546876-31.546876v-336.679687c0-17.394531-14.152344-31.546875-31.546876-31.546875zm-353.226562 368.226562v-336.679687c0-9.125 7.421875-16.546875 16.546875-16.546875h80.164063c9.125 0 16.546874 7.421875 16.546874 16.546875v296.597656c0 4.140625 3.359376 7.5 7.5 7.5 4.140626 0 7.5-3.359375 7.5-7.5v-296.597656c0-.171875-.011718-.34375-.011718-.515625h17.089844c-.003907.171875-.011719.34375-.011719.515625v336.679687c0 .171876.007812.34375.011719.515626h-17.089844c0-.171876.011718-.34375.011718-.515626v-8.015624c0-4.144532-3.359374-7.5-7.5-7.5-4.140624 0-7.5 3.355468-7.5 7.5v8.015624c0 9.125-7.421874 16.546876-16.546874 16.546876h-80.164063c-9.125 0-16.546875-7.421876-16.546875-16.546876zm209.449219 56.113282c0 40.0625-32.59375 72.660156-72.660157 72.660156-40.066406 0-72.660156-32.597656-72.660156-72.660156v-24.566406h32.578125c11.757813 0 22.027344-6.46875 27.453125-16.03125h25.257813c5.425781 9.5625 15.695312 16.03125 27.453125 16.03125h32.582031v24.566406zm143.777343-39.566406h-176.355468c-9.125 0-16.546875-7.421876-16.546875-16.546876v-176.871093h8.527343c4.140626 0 7.5-3.359375 7.5-7.5s-3.359374-7.5-7.5-7.5h-8.527343v-144.808594c0-9.125 7.421875-16.546875 16.546875-16.546875h176.355468c9.125 0 16.546876 7.421875 16.546876 16.546875v144.808594h-168.855469c-4.140625 0-7.5 3.359375-7.5 7.5s3.359375 7.5 7.5 7.5h168.855469v176.871093c0 9.125-7.421876 16.546876-16.546876 16.546876zm0 0"/><path d="m248.484375 151.273438c4.140625 0 7.5-3.359376 7.5-7.5 0-4.140626-3.359375-7.5-7.5-7.5h-32.066406c-.285157 0-.515625-.230469-.515625-.515626v-80.160156c0-.285156.230468-.515625.515625-.515625h128.257812c.285157 0 .519531.230469.519531.515625v80.160156c0 .285157-.234374.515626-.519531.515626h-32.0625c-4.144531 0-7.5 3.359374-7.5 7.5 0 4.144531 3.355469 7.5 7.5 7.5h32.0625c8.558594 0 15.519531-6.957032 15.519531-15.515626v-80.160156c0-8.558594-6.960937-15.515625-15.519531-15.515625h-128.257812c-8.554688 0-15.515625 6.957031-15.515625 15.515625v80.160156c0 8.558594 6.960937 15.515626 15.515625 15.515626zm0 0"/><path d="m336.660156 216.4375c-12.976562 0-23.53125 10.554688-23.53125 23.53125 0 12.972656 10.554688 23.53125 23.53125 23.53125 12.976563 0 23.53125-10.558594 23.53125-23.53125 0-12.976562-10.554687-23.53125-23.53125-23.53125zm0 32.0625c-4.703125 0-8.53125-3.828125-8.53125-8.53125s3.828125-8.53125 8.53125-8.53125c4.707032 0 8.53125 3.828125 8.53125 8.53125s-3.824218 8.53125-8.53125 8.53125zm0 0"/><path d="m336.660156 280.5625c-12.976562 0-23.53125 10.558594-23.53125 23.535156 0 12.972656 10.554688 23.53125 23.53125 23.53125 12.976563 0 23.53125-10.558594 23.53125-23.53125 0-12.976562-10.554687-23.535156-23.53125-23.535156zm0 32.066406c-4.703125 0-8.53125-3.828125-8.53125-8.53125s3.828125-8.53125 8.53125-8.53125c4.707032 0 8.53125 3.828125 8.53125 8.53125s-3.824218 8.53125-8.53125 8.53125zm0 0"/></svg>